<svg width="75" height="78" viewBox="0 0 75 78" fill="none" xmlns="http://www.w3.org/2000/svg">
<path fill-rule="evenodd" clip-rule="evenodd" d="M34.8225 5.84998C37.8637 5.84998 40.3252 8.4856 40.3252 11.6485C40.3252 14.8106 37.8637 17.4462 34.8225 17.4462C31.7812 17.4462 29.247 14.8106 29.247 11.6485C29.247 8.4856 31.782 5.84998 34.8225 5.84998ZM35.1847 17.9735C37.2772 17.9057 38.895 19.2597 39.7462 20.6848L45.5385 30.7L55.6755 35.1429C58.5712 36.4221 57.1957 40.4133 53.9377 39.5101C53.8212 39.4277 53.7002 39.3522 53.5755 39.2839L46.7692 54.9463C46.7692 54.9463 48.9413 60.1427 51.693 66.0168C54.372 71.9651 47.8552 74.5259 45.4657 69.0284L43.077 63.4561L39.6015 71.363L38.1532 70.6851L42.2077 61.4983L35.4015 46.0621C35.112 46.137 34.8225 46.0621 34.4602 46.0621C34.4602 46.0621 26.568 64.7361 24.3952 69.6314C22.296 74.5259 16.0695 71.5891 18.1688 66.7688C20.2687 61.9499 30.261 38.5312 30.261 38.5312L22.8337 38.6576C21.7087 38.6677 21.4395 38.4813 21.3682 37.6046C21.2535 35.288 21.057 29.8373 21.5722 27.3109C22.2367 24.0544 22.6335 20.4703 24.8302 19.404C27.0277 18.3378 30.84 21.287 30.84 21.287C31.419 19.3292 33.2295 17.9735 35.1847 17.9735ZM39.6735 29.7203V38.7582L45.9007 52.9152L52.1272 38.6825L43.077 34.7669C42.642 34.5407 42.2805 34.2396 41.9902 33.788L39.6735 29.7203Z" fill="#D2FFBD"/>
</svg>
