<svg width="75" height="78" viewBox="0 0 75 78" fill="none" xmlns="http://www.w3.org/2000/svg">
<path fill-rule="evenodd" clip-rule="evenodd" d="M34.8225 5.8501C37.8637 5.8501 40.3252 8.48572 40.3252 11.6486C40.3252 14.8107 37.8637 17.4464 34.8225 17.4464C31.7812 17.4464 29.247 14.8107 29.247 11.6486C29.247 8.48572 31.782 5.8501 34.8225 5.8501ZM35.1847 17.9736C37.2772 17.9058 38.895 19.2599 39.7462 20.6849L45.5385 30.7001L55.6755 35.143C58.5712 36.4222 57.1957 40.4135 53.9377 39.5102C53.8212 39.4278 53.7002 39.3523 53.5755 39.284L46.7692 54.9464C46.7692 54.9464 48.9413 60.1428 51.693 66.017C54.372 71.9652 47.8552 74.526 45.4657 69.0285L43.077 63.4562L39.6015 71.3631L38.1532 70.6853L42.2077 61.4984L35.4015 46.0622C35.112 46.1371 34.8225 46.0622 34.4602 46.0622C34.4602 46.0622 26.568 64.7362 24.3952 69.6315C22.296 74.526 16.0695 71.5893 18.1688 66.7689C20.2687 61.95 30.261 38.5313 30.261 38.5313L22.8337 38.6577C21.7087 38.6678 21.4395 38.4814 21.3682 37.6047C21.2535 35.2881 21.057 29.8374 21.5722 27.311C22.2367 24.0545 22.6335 20.4704 24.8302 19.4042C27.0277 18.3379 30.84 21.2871 30.84 21.2871C31.419 19.3293 33.2295 17.9736 35.1847 17.9736ZM39.6735 29.7204V38.7583L45.9007 52.9153L52.1272 38.6826L43.077 34.767C42.642 34.5408 42.2805 34.2398 41.9902 33.7881L39.6735 29.7204Z" fill="red"/>
<path d="M52 21L63 2L74 21H52ZM63 18C63.2833 18 63.521 17.904 63.713 17.712C63.905 17.52 64.0007 17.2827 64 17C64 16.7167 63.904 16.4793 63.712 16.288C63.52 16.0967 63.2827 16.0007 63 16C62.7167 16 62.4793 16.096 62.288 16.288C62.0967 16.48 62.0007 16.7173 62 17C62 17.2833 62.096 17.521 62.288 17.713C62.48 17.905 62.7173 18.0007 63 18ZM62 15H64V10H62V15Z" fill="red"/>
</svg>
